<svg width="151" height="63" xmlns="http://www.w3.org/2000/svg">
  <g stroke="#F36" stroke-width="3" fill="none" fill-rule="evenodd">
    <path d="M8.1 44.2c3.3 2.9 7.6 4.7 12.4 4.7 10.3 0 18.7-8.4 18.7-18.7 0-10.3-8.4-18.7-18.7-18.7-10.3 0-18.7 8.5-18.7 18.8v32.5M149.5 30.3c0 10.3-8.4 18.7-18.7 18.7-10.3 0-18.7-8.4-18.7-18.7 0-10.3 8.4-18.7 18.7-18.7 10.3 0 18.7 8.4 18.7 18.7zM99.2 40.9c-3.4 4.8-9 8-15.3 8-10.3 0-18.7-8.4-18.7-18.7 0-10.3 8.4-18.7 18.7-18.7 10.3 0 18.7 8.4 18.7 18.7H78.9M51.3.6v39s-.2 7.9 7.7 9.4"/>
  </g>
</svg>
